<svg version="1.2" baseProfile="tiny" xmlns="http://www.w3.org/2000/svg" viewBox="0 0 256 256"><path fill="#3C6991" d="M110.94 22.636c-4.336.08-9.76 2.784-13.64 1.85-1.55-.373-3.443-.534-5.296-.433-.033.002-.066-.002-.098 0-1.884.112-3.723.51-5.078 1.338-.056.035-.12.067-.177.1-.053.078-.11.15-.176.216-1.8 1.8-5.784 1.965-7.637 3.818-1.514 1.514-2.916 4.412-4.586 7.007-.015.026-.022.055-.038.08-5.942 6.928-10.683 15.452-12.36 22.418-1.38 5.724-1.36 13.456-3.623 19.15-.634 1.594-3.257 10.41-1.22 12.125 1.386 1.168 7.297 2.062 9.033 0 .934-1.11 9.503-3.883 12.183-7.066 3.156-3.748 4.785-10.22 6.948-15.667.344-.867.788-1.786 1.3-2.697 1.226 2.377 2.2 4.318 2.715 5.51 1.07 2.484 2.25 5.917 3.227 9.586-2.12 3.247-1.237 7.69.295 9.722-6.2 1.93-3.246 8.6-3.484 8.837-.408.407-1.702.953-2.224 1.475-.647.647-.748 1.996-.748 2.972 0 .942.12 1.78.295 2.52-5.64 14.19-10.965 31.952-17.694 41.53-1.937.882-3.918 1.64-6.24 2.105-4.522 1.13-15.955 3.372-25.586 6.613-.418.556-.905 1.102-1.457 1.653-.954.954-2.864.955-3.818 1.91-.742.74-3.056-.094-3.8.65-2.202 2.202-5.453 3.346-8.915 5.077-.384.192-1.615-.294-1.91 0-1.572 1.573-4.388 2.48-5.727 3.818-2.618 2.618-4.813 5.462-7.637 8.286-2.807 2.806 2.917 10.533 3.818 11.435 2.652 2.652 7.524 3.076 10.176 5.728 1.116 1.116 4.857-.376 6.2.512.347.05.657.112.866.217 3.908 1.954 11.573 3.398 16.2 4.94 6.374 2.125 11.432 7.803 18.008 9.448 5.007 1.252 10.693 1.918 15.746 3.602 2.113.704 4.678.22 6.73.905 3.84 1.28 7.308 2.87 10.807 4.035 1.212.404 2.813-.31 4.055 0 2.794.698 5.813.9 8.542 1.81 4.86 1.62 11.34-1.62 16.2 0 3.2 1.068 23.137-.64 24.74-2.243 1.18-1.18 5.66.318 7.204-.454 1.34-.67 5.406-.013 6.298-.905 2.306-2.305 7.04-2.406 10.333-4.054 1.385-.693 3.52.266 4.96-.453.826-.414 2.507.095 4.33.886 3.467-.074 6.136-.434 9.604-.434 4.123 0 9.814-1.957 15.844-4.92 6.674-1.504 14.832-3.24 15.215-3.623 2.9-2.9 10.607-2.065 13.483-4.94 2.037-2.037 4.654-2.863 6.75-4.96 1.87-1.868 4.436-4.007 7.126-6.26.47-1.305 1.668-2.533 2.775-3.64.464-.464 3.74-10.054 3.15-11.24-1.085-2.168-2.877-3.962-4.94-5.628-.64-.22-1.132-.443-1.36-.67-2.204-2.204-7.487-2.546-9.447-4.506-3.156-3.157-7.9-5.993-13.56-7.894-1.187-.588-2.296-1.213-3.09-2.008-1.01-1.008-6.836-2.296-8.543-3.15-.918-.458-2.917.253-3.602-.432-1.662-1.662-8.628-2.846-13.66-4.448-.734.047-1.91-.514-2.126-.728-.152-.15-4.053-.726-5.335-2.008-.146-.146-.67-5.372-.67-6.023 0-.24-.582-1.21-.235-1.556.054-.054.107-.117.157-.177-2.33-14.35-4.11-30.198-5.787-31.61-2.49-2.097-3.874-13.675-6.613-15.982-2.864-2.412-4.656-5.05-6.87-7.105 0-.006.002-.013 0-.02-.83-4.575-2.412-9.716-2.912-10.136-.812-.684.418-3.784-.394-4.468-2.526-2.128-5.817-14.636-8.187-16.632-3.104-2.614-4.63-6.67-7.578-9.152-7.282-6.132-19.38-15.258-32.752-14.565-.575-.162-1.135-.357-1.673-.57-.847-.335-1.81-.45-2.81-.43z"/><path fill="#E6B35A" d="M108.052 102.053c-1.123-.203-2.22-.214-3.083.072-1.436.476-3.75-.65-5.247-.38-5.664 1.02-10.105 2.556-10.87 4.46 8.407-2.41 17.74 2.97 21.563 8.08 1.59 2.126-.862 5.346.003 7.953.195.59.352 4.37-.33 4.878-1.42 1.064-1.28 4.777-2.457 6.47-2.77 3.99-5.183 6.903-7.535 10.29-2.425 3.495-8.91 4.194-12.53 5.396-.8.265-1.805-.286-2.648-.007-.2.066-.43.078-.663.045.08.092.175.18.243.27.305.408 1.794.02 2.23.32 2.81 1.953 13.94 1.204 17.025.18 1.92-.637 3.7-1.578 5.62-2.216 2.462-.817 4.885-4.646 6.654-6.617 6.08-6.78 8.86-18.522 5.852-27.584-1.512-4.555-5.47-7.285-8.84-9.624-1.15-.8-3.118-1.65-4.99-1.987zM121.617 93.302c-.362-.012-.413 3.534-.44 5.224-.17.01-.164.223-.118.464-1.83.812-5.808 2.437-5.503 2.763.014.007.016.018.023.023-.144.007-.295.056-.302.255-.014.264.527.015.79.024.422.014 4.123 1.38 5.594 1.997.182 1.4.72 2.234.72 3.832 0 .996.196 2.368.255 2.368.022 0 .062-.03.092-.047.042.173.09.275.162.21.29-.272.814-.997 1.346-1.812.023-.034.048-.057.07-.092.937-1.162 2.01-2.65 2.924-3.993 1.775.258 3.4.464 3.807.464.194 0 6.94 1.158 4.99-.79-.118-.12-.257-.22-.395-.325.043-.034.068-.07.07-.116.013-.377-3.752-2.108-4.366-2.764-.297-.316-.726-.52-1.022-.836-.078-.083.07-.315.302-.65v-.023c.523-.578 1.082-1.175 1.486-1.58.193-.192 1.283-2.23.25-2.097-.697.09-2.976.235-5.96 1.108 0 0-.805-1.054-.81-1.05-.648-.266-2.483-2.508-3.973-2.557l.004.002zM104.77 92.776c-.216.104-.542.526-.646.31-.104-.214.86-.414.645-.31-.642.31-3.122 2.543-2.208 3.25.752.58 3.54-.507 4.722-.093.177.062 2.14 3.076 2.45 2.196.5-1.437-.12-3.88-.105-3.923.23-.663 2.045-.39 2.488-.604.366-.177 1.11-.49 1.212-.783.027-.08.048-.315.084-.24.03.063-.484-.436-1.11-.655-.937-.327-1.885-.122-2.556-.357-.31-.108.063-1.93-.05-2.16-.368-.766-.602-1.663-.537-1.53.184.38-.792.372-1.05.706-.32.415-1.16 1.824-1.705 1.816-.652-.01-3.263-.63-3.44-.13-.015.028 1.627 1.653 1.804 2.506zM130.013 118.112c-.175-.162-.687-.312-.524-.487.16-.175.697.65.523.487-.522-.484-3.506-1.98-3.83-.87-.267.91 1.76 3.11 1.807 4.363.014.187-2.084 3.115-1.152 3.08 1.52-.055 3.568-1.524 3.615-1.525.7-.026 1.11 1.763 1.47 2.098.298.277.86.854 1.17.843.085-.002.31-.07.253-.01-.046.05.23-.61.206-1.273-.037-.99-.573-1.8-.6-2.51-.013-.328 1.82-.644 1.995-.834.578-.622 1.328-1.167 1.227-1.058-.287.31-.635-.603-1.04-.72-.503-.148-2.12-.42-2.312-.928-.23-.61-.602-3.27-1.133-3.25-.032 0-.948 2.12-1.677 2.595z"/><path fill="#E6B35A" d="M187.425 141.656c-.51 1.75-3.697 7.358-5.04 8.7-1.725 1.726-3.21 3.525-4.723 5.04-1.072 1.07-4.133 3.817-5.04 4.723-1.968 1.968-3.122 1.232-5.353 3.463-1.107 1.106-3.333 1.128-4.41 2.204-.974.974-8.788 1.56-10.707 2.52-.464.23-1.85-.354-2.204 0-1.38 1.378-12.274 1.88-12.598 2.203-1.668 1.668-6.11-.252-8.503.945-2.124 1.062-6.34.315-8.82.315-1.372 0-5.02-.026-8.777-.118-.887-.126-1.586-.225-1.614-.197-.02.02-.105.106-.158.157-.706-.022-1.385-.05-2.067-.08-.424-.16-.874-.26-1.24-.078-.017.008-.04.01-.06.02-2.93-.142-5.323-.35-5.923-.65-2.464-1.232-5.11-1.575-8.188-1.575-4.816 0-15.48-5.694-19.21-7.56-.57-.285-2.156-1.946-3.01-2.4-.008-.33-.02-.63-.14-.748-.877-.878-1.26-2.84-1.89-4.094-.26-.522 0-2.437 0-2.204 0 .01.634-2.52.63-2.52-.54 0-3.36 3.678-4.408 4.725-.01.01.02.066.04.117-.59.813-1.005 2.027-1.005 3.858 0 6.242 3.444 6.572 6.673 9.802.793.793 2.49.266 3.11.886.632.632 1.56 1.194 2.657 1.693-1.372.804-4.015 1.004-4.88 1.87-.848.847-4.777 3.283-6.24 4.015-.275.14-1.606.29-1.77.454-8.32 8.32-17.71 13.693-25.39 21.375-.648.646-.887 9.093-.887 10.687 0 2.783-.945 5.727.886 7.558.77.772 3.332.223 4.014.905.148.148 2.01 1.533 2.224 1.32.813-.814-.453-5.063-.453-6.22 0-6.082.656-12.23 4.468-16.042 7.35-7.35 17.83-10.704 24.485-17.36 1.956-1.956 5.54-2.998 8.15-5.137-.092.628.014 1.22.47 1.713.305.33 1.388-.322 1.772-.118 2.615 1.387 10.585 4.36 12.93 1.496.426.81.764 1.63 1.182 2.048 1.562 1.562.34 9.1-.453 10.688-2.994 5.986-4.573 23.27-7.126 25.823-.44.44.53 4.64.886 5.353.928 1.856-.68 5.993 0 6.672.668.668.237 2.442.905 3.11.608.608 3.387-.155 3.996.453.242.24 3.41 2.397 4.016 1.79.502-.5-1.374-6.29-1.79-7.124-.36-.718.966-13.9 1.337-14.27.52-.52-.52-2.59 0-3.11 1.012-1.012 2.224-21.976 2.224-24.938 0-.5 1.278-3.623.453-4.448-.004-.004-.738-1.69-1.732-3.326 1.468.11 2.707.286 3.07.65.654.654 13.83 0 16.022 0 8.7 0 22.39-.674 27.615-1.79 2.083-.446 7.023-.836 9.802-2.225 1.613-.806 7.294-1.358 8.286-1.614 2.12-.547 8.938-2.187 10.845-4.094 1.414-1.415 6.25-6.315 8.03-7.205 2.007-1.004 3.015-4.57 4.192-6.22.15-1.222 3.44-4.416 2.795-5.708-.73-2.983-1.19-6.066-2.36-6.18z"/></svg>