<svg baseProfile="basic" xmlns="http://www.w3.org/2000/svg" viewBox="0 0 256 256"><radialGradient id="a" cx="128" cy="130" r="115.062" gradientTransform="matrix(1 0 0 -1 0 258)" gradientUnits="userSpaceOnUse"><stop offset="0" stop-color="#FFF"/><stop offset="1" stop-color="#9BDAE8"/></radialGradient><path fill="url(#a)" d="M128 23.82c-67.294 0-120.013 85.62-125 157.936 21.112 36.642 72.038 50.424 125 50.424 52.96 0 103.89-13.783 125-50.424C248.013 109.44 195.294 23.82 128 23.82z"/><radialGradient id="b" cx="104.288" cy="158.785" r="117.007" gradientTransform="matrix(.908 0 0 -1.009 27.581 261.855)" gradientUnits="userSpaceOnUse"><stop offset="0" stop-color="#CDE5B9"/><stop offset="1" stop-color="#67BC51"/></radialGradient><path fill="url(#b)" d="M233.43 177.355c.26 21.502-48.47 41.897-108.318 43.37-59.854-1.47-108.58-21.868-108.322-43.37-.005-21.12 46.69-64.71 108.322-65.803 61.628 1.097 108.324 44.684 108.32 65.803z"/><ellipse fill="#6A5221" cx="125.165" cy="171.981" rx="46.263" ry="21.768" opacity=".64"/><path fill="#F57F20" d="M118.266 76.855c3.877 15.323-12.41 22.344-20.942 33.835-14.733 18.512-24.816 56.18.778 71.502.96.58 1.968 1.09 2.998 1.554 14.746 6.652 35.837 4.75 50.06-2.146 6.382-3.094 12.397-7.927 13.685-14.715 1.928-10.142-10.39-13.976-9.815-24.022.252-4.376 1.575-7.744 3.86-11.557 3.425-5.725 4.96-17.548-4.595-18.37.465 4.128-6.217 16.426-12.23 11.47-3.58-2.955.58-9.55 1.323-12.932 4.12-18.71-4.353-43.913-27.45-48.664"/><path fill="#F6EB16" d="M139.593 158.193c.542 2.682.49 5.585.037 8.267-.43 2.56-1.325 5.077-2.818 7.292-.76 1.13-1.67 2.172-2.717 3.094-.47.417-.988.86-1.57 1.145-.594.29-1.298.33-1.94.482-1.163.268-2.223.457-3.43.505-1.246.05-2.495-.114-3.735-.173-.258-.013-.518 0-.775-.003-2.5-.01-5.085-1.252-7.215-2.362-2.403-1.26-4.594-2.86-6.448-4.732-8.3-8.397-9.303-19.503-4.22-29.522 4.35-8.578 13.193-14.84 17.593-23.313.733-1.41 1.628-3.35 1.793-4.912.215-2.013.425-4.31-.462-6.158.096.2 1.623.672 1.93.92.535.42.925.942 1.2 1.53.585 1.254.545 2.702.362 4.027-.202 1.455-.592 2.94-1.27 4.268-.894 1.745-1.104 3.665-1.924 5.46-.696 1.527-1.277 3.24-2.268 4.674-1.036 1.5-2.016 3.05-2.42 4.787-.54 2.332-.99 4.746-1.06 7.136-.087 3.112 1.974 6.182 3.514 8.904 1.835 3.24 4.584 4.82 8.477 3.596 4.937-1.55 8.99-7.372 10.917-11.5-3.877 8.288-3.102 8.926-1.55 16.59z"/><path fill="#FFF" d="M121.843 172.143c-3.527-.34-6.2-2.337-7.186-5.44-.985-3.093-2.026-7.868-1.14-10.985.333-1.168.99-2.24 1.262-3.487.294-1.348.145-3.21 1.3-4.22.443-.387.67 3.262.66 3.42-.023.55-.334 1.595-.068 2.105.497.948.972.266 1.33.584 1.466 1.292 2.11 4.46 3.1 6.335 2.81 5.346 7.145 7.22 12.053 2.37-1.19 2.94-4.167 5.883-7.738 7.352" opacity=".75"/><path fill="#6A5221" d="M222.336 155.24c-12.367-4.124-20.294 31.633-41.265 44.52-19.58 12.04-46.09 15.62-59.832 20.1 33.933 1.263 62.566-6.414 85.916-16.065 18.292-7.56 39.72-24.02 15.182-48.555" opacity=".15"/><g opacity=".15"><path fill="#6A5221" d="M33.484 197.012c-19.928-13.052 21.988-56.527 29.55-68.21-9.62 1.5-31.932 21.145-37.795 29.73-10.345 15.147-13.675 26.814 6.643 39.167"/></g></svg>