<svg version="1.2" baseProfile="tiny" xmlns="http://www.w3.org/2000/svg" viewBox="0 0 256 256"><path fill-rule="evenodd" fill="#191717" d="M127.61 5.414c-69.027 0-125 55.962-125 125 0 55.228 35.815 102.083 85.482 118.612 6.246 1.156 8.54-2.713 8.54-6.014 0-2.98-.114-12.828-.17-23.273-34.774 7.56-42.112-14.75-42.112-14.75-5.686-14.446-13.88-18.29-13.88-18.29-11.34-7.757.856-7.598.856-7.598 12.55.88 19.16 12.883 19.16 12.883 11.15 19.11 29.243 13.584 36.377 10.39 1.122-8.078 4.36-13.594 7.936-16.715-27.766-3.16-56.953-13.88-56.953-61.775 0-13.647 4.884-24.798 12.88-33.552-1.297-3.15-5.576-15.862 1.212-33.08 0 0 10.496-3.36 34.382 12.814 9.972-2.77 20.665-4.16 31.288-4.208 10.623.048 21.324 1.436 31.314 4.207 23.86-16.173 34.34-12.815 34.34-12.815 6.804 17.22 2.525 29.932 1.227 33.08 8.016 8.755 12.865 19.906 12.865 33.553 0 48.01-29.242 58.58-57.077 61.676 4.484 3.88 8.478 11.487 8.478 23.15 0 16.724-.143 30.185-.143 34.303 0 3.327 2.25 7.225 8.585 5.998 49.64-16.547 85.412-63.385 85.412-118.595 0-69.04-55.967-125-125-125z"/><path fill="#191717" d="M49.953 184.886c-.275.623-1.253.81-2.143.382-.908-.408-1.415-1.255-1.122-1.878.27-.64 1.247-.817 2.153-.39.91.408 1.426 1.263 1.113 1.886zm-1.538-1.14M55.017 190.534c-.596.552-1.763.295-2.553-.578-.82-.87-.97-2.038-.366-2.598.615-.552 1.745-.293 2.563.578.82.882.98 2.038.357 2.598zm-1.193-1.28M59.945 197.732c-.766.534-2.02.034-2.794-1.077-.765-1.112-.765-2.446.02-2.98.773-.533 2.008-.052 2.793 1.05.764 1.13.764 2.463-.018 3.007zm0 0M66.697 204.688c-.685.756-2.145.552-3.212-.48-1.094-1.006-1.397-2.437-.71-3.193.694-.756 2.162-.544 3.237.48 1.085 1.006 1.414 2.445.685 3.193zm0 0M76.012 208.727c-.303.978-1.708 1.423-3.123 1.007-1.416-.43-2.34-1.575-2.055-2.563.293-.986 1.706-1.448 3.13-1.004 1.414.426 2.34 1.564 2.047 2.56zm0 0M86.242 209.475c.034 1.03-1.166 1.886-2.652 1.904-1.494.033-2.705-.8-2.72-1.816 0-1.04 1.173-1.886 2.667-1.912 1.486-.03 2.705.8 2.705 1.823zm0 0M95.76 207.856c.18 1.005-.854 2.038-2.33 2.313-1.45.266-2.794-.357-2.98-1.353-.18-1.03.872-2.064 2.322-2.33 1.477-.26 2.8.346 2.99 1.37zm0 0"/></svg>