<svg version="1.2" baseProfile="tiny" xmlns="http://www.w3.org/2000/svg" viewBox="0 0 256 256"><path fill="#FBAA1B" d="M47.34 64.258s4.282 16.513 4.893 22.02c.613 5.503-11.01 17.735-11.01 23.85 0 6.118 2.444 17.126 15.9 22.63 13.458 5.506 15.29 19.572 15.29 28.136 0 8.562-4.89 25.074-4.89 25.074s-3.058 40.977 13.454 48.316c16.512 7.338 12.844 7.338 16.512 7.338 3.668 0 30.58 11.01 46.48 6.73 15.902-4.28 20.18-9.173 20.18-9.173s15.903 1.22 20.795-12.848c4.895-14.065 7.95-43.42 6.116-56.878-1.834-13.457-4.28-31.19 6.728-37.308 11.012-6.117 22.63-13.453 20.795-19.57-1.835-6.118-11.618-14.68-11.618-14.68s-2.447-15.288-.613-18.96c1.834-3.67 12.844-12.845 6.727-19.57-6.114-6.728-17.126-6.728-17.126-6.728L181.89 53.86s-23.852-21.405-55.044-20.182C95.656 34.902 76.082 53.86 76.082 53.86s-10.396-3.67-19.57 0c-9.175 3.67-11.004 0-9.17 10.398z"/><path fill="#E78825" d="M103.225 155.318s-12.112 18.52-20.995 31.66c-1.375 2.034 8.884 2.175 8.884 2.175l12.11-33.835zM108.992 116.923s-3.65 9.108-5.65 13.937c-2.172 5.25-10.45 7.86-10.45 7.86s4.29-4.5 4.29-15.9c0-4.782 6.176-6.684 6.176-6.684l5.634.787z"/><path fill="#E78825" d="M105.304 122.073s-7.48 8.904-21.368 3.917c-13.89-4.985-15.315-22.795-15.315-27.782 0-4.987 26.358 4.987 29.92 7.124s10.325 10.685 6.764 16.74zM52.84 26.928s12.822-2.495 21.37 4.273c8.55 6.768 11.04 12.112 11.04 12.112l-14.407 11.42s-6.96-3.228-9.1-12.49c-2.136-9.26-.71-13.532-8.902-15.314zM101.564 96.354c-5.52-7.836-14.618-11.254-21.88-11.82-12.386-.97-18.266 3.41-18.266 3.41s20.284.86 26.13 8.538c10.885 14.29 26.763 15.453 29.302 12.314-2.936.146-6.166-1.308-9.623-4.577-2.16-2.047-3.91-5.38-5.663-7.866zM67.322 124.06s-22.506-7.736-18.228-15.57c4.273-7.837.872-12.106.872-12.106s-12.567 9.38-9.364 19.353c1.968 6.12 5.27 10.553 23.4 19.05 8.695 16.15 1.795 45.224 2.208 45.36.69.23 12.21-5.693 11.423-32.893-.24-8.353-.908-19.756-10.31-23.193zM96.814 40.865c-9.437 4.794-22.365 11.47-22.365 11.47l5.087 2.546c-.486.788-.72 1.257-.72 1.257l5.223 2.375s12.75 9.235 20.56 15.173c-2.605-8.02-10.25-20.618-10.25-20.618s-2.166-5.79 2.464-12.202zM128.163 236.288c-29.005 0-38.83-14.725-38.83-14.725l4.533 11.038c1.713 4.776 19.992 19.637 34.253 19.637"/><path fill="#E78825" d="M92.512 211.614s2.67 16.31 13.354 16.31c9.08 0 11.756-13.777 11.756-16.625l-25.11.314zM74.73 187.017c.95-2.613 4.273-13.18 5.34-22.795 1.28-11.517.814-28.36.814-28.36s-2.85 11.04-5.344 12.825c-2.492 1.78-7.123 13.888-7.123 13.888s-2.48 18.027-3.66 24.086c3.266.655 6.017-1.27 9.973.357zM48.926 115.56s6.053-2.14 7.836-15.315c1.78-13.18-2.14-24.577-2.14-24.577s.357 18.165-1.78 21.727c-2.138 3.56-3.916 4.63-6.41 9.26-2.495 4.633 1.067 7.48 2.494 8.905z"/><path fill="#FDC169" d="M56.154 30.045l-1.236-.783c-3.644.124 1.236.783 1.236.783z"/><path fill="#FBAA1B" d="M101.74 36.964s-5.696-.95-8.547-5.223c-2.85-4.274-10.923-12.823-23.79-12.92-12.87-.095-25.6 3.42-25.6 3.42l11.114 7.023c1.175-.038 3.23-.022 6.63.09 13.946.465 16.093 14.26 16.093 14.26l49.152-6.768"/><path fill="#FFF" d="M106.49 113.157s-6.648 6.65-16.86 4.51c-10.21-2.135-16.386-6.647-16.86-14.484-.476-7.836 2.138-10.923 2.138-10.923s11.397 3.564 16.86 8.314c5.463 4.747 9.498 12.346 14.723 12.583z"/><path fill="#C9C9C9" d="M98.444 110.78s-5.767 2.635-12.212.49c-8.438-2.814-9-11.59-9-11.59s-5.175 15.19 9.337 18.115c11.64 2.345 18.523-4.4 18.523-4.4l-6.65-2.614z"/><path fill="#463117" d="M102.542 33.74c-.62-13.026 10.06-23.402 13.76-23.844.203 2.208-.207 10.818 3.492 13.466 1.077-7.033 4.72-14.787 19.1-19.867-3.08 8.17-.41 15.012.86 18.183 9.82-8.914 16.437-7.44 16.437-7.44s-6.822 11.774-4.154 19.5c-19.713-1.545-49.398 2.095-49.494.003zM60.748 53.584c-4.704-3.902-1.198-7.524-1.57-11.958-.2-2.36-.388-4.585-1.165-5.813-4.328-6.835-14.54-8.91-14.642-8.93l-4.792-.94 3.172-3.71c.41-.482 13.44-12.913 33.602-6.403 14.103 4.55 24.544 19.973 24.933 20.596l-7.072 3.325c-.083-.13-8.337-14.628-20.436-18.53-9.78-3.156-18.795-.154-22.657 1.814 4.105 1.64 9.47 4.623 12.705 9.73 1.525 2.41 1.783 5.446 2.03 8.386.33 3.892.635 7.566 3.5 9.945l-7.607 2.49zM48.185 110.55s5.926-7.348 7.682-21.647c.69-5.632-.535-16.74-2.495-21.015.356 10.507-2.315 21.015-2.315 21.015s-1.8 19.51-2.872 21.648zM79.435 46.162c-.003-.016-1.902-8.312-7.165-12.5-7.425-5.906-16.49-2.764-16.578-2.737l-1.316-4.067c.44-.143 10.8-3.408 20.35 3.305 9.608 6.75 10.76 12.87 10.86 13.547l-6.15 2.452zM66.798 105.28s-3.11-4.45-2.55-9.346c.278-2.417 1.4-4.9 3.4-5.78 3.716-1.632 5.363 2.58 5.363 2.58s-5.23 1.292-6.212 12.546z"/><path fill="#463117" d="M100.936 112.064c.13.243.196.378.196.378s-9.697 7.278-19.636-.107c-5.32-3.957-4.817-13.744-3.187-17.895 4.237.96 7.832 2.692 10.837 4.714-3.797-3.39-7.12-5.884-7.112-5.94L77.72 91.99l-8.39-2.875c-.106.64-3.166 14.98 5.665 24.753 3.914 4.333 22.266 14.036 30.978-2.555l-5.037.75z"/><path fill="#463117" d="M100.028 113.13c5.46 8.31 19.236 3.562 18.998-5.223 0 0-9.205 5.08-17.337-4.273-4.75-5.46-19.963-20.517-40.595-15.513 14.248 3.133 33.11 16.15 38.933 25.01z"/><path fill="#463117" d="M59.168 136.583c1.313.76 5.946 5.556 5.95 12.73 0 3.6-.36 21.673-2.14 32.715 2.678 1.74 4.544 2.11 7.21 3.884 1.336-12.788 2.294-31.323 1.847-38.806-.51-8.53-5.077-14.253-9.312-16.694-1.326-.763-2.712-1.513-4.108-2.267-7.254-3.92-14.755-7.974-14.755-14.897 0-5.416 2.105-7.11 4.334-8.905l.24-.195c1.48-1.195 3.153-2.55 4.145-4.776 2.705-6.084 3.148-21.583 0-25.518-1.57-1.96-5.776-8.553-4.567-12.983.46-1.69 1.525-2.943 3.26-3.83 1.833-.94 4.312-1.417 7.363-1.417 5.993 0 12.64 1.824 16.068 2.91 12.253 3.884 27.04 15.08 31.277 18.42.123.094.194.15.207.158l2.712 1.887-1.697-2.838c-.104-.178-10.847-17.84-30.054-24.317-3.738-1.26-11.08-3.374-18.293-3.374-4.296 0-7.94.75-10.826 2.227-3.516 1.8-5.898 4.67-6.888 8.3-2.425 8.896 5.474 18.8 5.743 19.117.92 1.644 1.31 13.587-.816 18.367-.294.66-1.096 1.31-2.112 2.13-.318.256-.674.524-1.05.81-3.003 2.265-7.542 5.688-7.542 13.578 0 10.797 10.942 16.65 19.736 21.357 1.444.777 2.82 1.51 4.066 2.228zM60.748 53.584c-4.704-3.902-1.198-7.524-1.57-11.958-.2-2.36-.388-4.585-1.165-5.813-4.328-6.835-14.54-8.91-14.642-8.93l-4.792-.94 3.172-3.71c.41-.482 13.44-12.913 33.602-6.403 14.103 4.55 24.544 19.973 24.933 20.596l-7.072 3.325c-.083-.13-8.337-14.628-20.436-18.53-9.78-3.156-18.795-.154-22.657 1.814 4.105 1.64 9.47 4.623 12.705 9.73 1.525 2.41 1.783 5.446 2.03 8.386.33 3.892.635 7.566 3.5 9.945l-7.607 2.49z"/><path fill="#463117" d="M60.595 54.383l-.304-.25c-3.487-2.896-2.868-5.747-2.27-8.506.273-1.273.56-2.59.444-3.94-.19-2.27-.373-4.412-1.057-5.493-4.122-6.508-14.082-8.593-14.18-8.613l-5.987-1.173 3.968-4.64c.072-.086 8.438-8.53 22.605-8.53 3.862 0 7.82.643 11.756 1.914 14.72 4.747 25.22 20.74 25.32 20.898l.424.68-8.365 3.933-.337-.532c-.9-1.534-8.832-14.615-20.052-18.234-2.755-.89-5.658-1.34-8.626-1.34-5.376 0-9.735 1.466-12.054 2.45 3.876 1.746 8.577 4.684 11.552 9.375 1.617 2.554 1.88 5.678 2.136 8.695.315 3.752.613 7.28 3.245 9.466l.993.825-9.21 3.018zM79.435 46.162c-.003-.016-1.902-8.312-7.165-12.5-7.425-5.906-16.49-2.764-16.578-2.737l-1.316-4.067c.44-.143 10.8-3.408 20.35 3.305 9.608 6.75 10.76 12.87 10.86 13.547l-6.15 2.452z"/><path fill="#463117" d="M78.924 47.132l-.185-.816c-.02-.08-1.882-8.093-6.916-12.095-2.87-2.283-6.33-3.443-10.277-3.443-3.082 0-5.373.736-5.623.822l-.68.225-1.767-5.425.677-.22c.304-.095 3.054-.953 6.944-.953 5.132 0 9.985 1.506 14.038 4.352 9.847 6.92 11.05 13.32 11.153 14.025l.086.558-7.452 2.97zM61.548 29.354c4.218 0 8.082 1.297 11.165 3.75 4.47 3.56 6.572 9.843 7.208 12.096l4.846-1.93c-.44-1.71-2.37-6.845-10.448-12.524-3.865-2.716-8.31-4.093-13.218-4.093-2.693 0-4.784.428-5.818.69l.874 2.7c1.013-.27 2.963-.69 5.392-.69zM105.42 224.01c-2.105 0-4.252-.763-5.74-2.052-1.14-.982-4.994-4.522-6.694-8.858-.634-1.622-.492-2.92.428-3.852.634-.64 1.95-1.404 4.623-1.404l1.902-.003h12.466c2.033 0 3.49.44 4.328 1.295 1.076 1.106.73 2.513.43 3.253-.523 1.297-2.69 5.518-6.36 9.442-1.315 1.405-3.228 2.18-5.384 2.18zM107.626 113.62l-7.6-.49s1.944 3.424 3.202 7.852c1.42 5.01-1.3 12.33-1.3 12.33s10.132-11.47 5.698-19.693zM98.14 244.074c-27.045-2.078-36.56-27.634-36.56-32.956l7.063.003-3.53-.002h3.53c.035 2.3 7.223 24.16 30.038 25.916l-.54 7.04z"/><path fill="#FFF" d="M90.54 198.29c-.422-2.444-.466-4.76.05-7.036-2.056-1.545-5.744-2.12-8.512-3.016-2.263-1.432-13.842 1.468-22.243-8.7-10.526-12.73-8.31-20.33-8.31-20.33-2.7 2.998-5.315 1.855-9.43 15.836-4.12 13.984 1.935 23.733 13.216 33.52 5.33 4.623 12.866 6.528 19.346 7.257-2.17-2.18 3.708-2.397 7.76-3.913-.322-3.272.22-6.448 2.66-9.005 1.47-1.542 3.363-2.463 5.326-3.198.11-.254.202-.488.307-.73-.065-.225-.13-.45-.17-.685z"/><path fill="#C9C9C9" d="M82.364 211.82c-.234-.686-.41-1.386-.585-2.09-.188-.77-1.12-2.95.03-.46-.297-.637-.49-1.294-.632-1.956-18.27-.023-34.166-12.567-31.095-38.94-2.392-3.176-5.74 6.402-5.74 6.402s-9.148 26.56 14.476 36.852c7.87 3.433 14.826 5.893 16.467 4.9 3.42.695 6.505-1.69 7.662-3.256-.22-.48-.417-.963-.586-1.45z"/><path fill="#463117" d="M90.21 194.465c.03-2.226.484-4.382 1.56-6.53.075-.15.163-.29.243-.435-7.03-.06-15.128-.734-22.023-3.493-7.58-3.03-17.06-13.403-18.688-25.588 0 0-14.273 11.013-10.08 34.586 3.938 22.136 22.46 29.353 43.587 30.574.01-.143-2.377-5.075-1.623-8.094-11.996.872-25.41-3.763-31.886-14.418-5.928-9.753-4.265-26.403-1.828-28.843 5.945 18.755 27.33 22.567 40.74 22.24z"/><path fill="#463117" d="M92.424 181.04c-3.802 11.155-11.567 20.184-11.567 20.184s10.682-.486 11.27-2.376c.438-1.393 9.646-22.95 13.18-48.202-3.323 5.462-12.557 29.438-12.883 30.393z"/><path fill="#E78825" d="M152.942 155.318s12.11 18.52 20.995 31.66c1.375 2.034-8.887 2.175-8.887 2.175l-12.108-33.835zM147.174 116.923s3.652 9.108 5.65 13.937c2.17 5.25 10.446 7.86 10.446 7.86s-4.29-4.5-4.29-15.9c0-4.782-6.174-6.684-6.174-6.684l-5.632.787z"/><path fill="#E78825" d="M150.86 122.073s7.48 8.904 21.373 3.917c13.892-4.987 15.315-22.795 15.315-27.782 0-4.987-26.357 4.987-29.92 7.124-3.562 2.138-10.327 10.685-6.767 16.74zM203.326 26.928s-12.82-2.495-21.37 4.273c-8.548 6.768-11.042 12.112-11.042 12.112l14.408 11.42s6.964-3.228 9.102-12.49c2.135-9.26.71-13.532 8.902-15.314z"/><path fill="#E78825" d="M154.602 96.354c5.52-7.836 14.615-11.254 21.88-11.82 12.387-.97 18.264 3.41 18.264 3.41s-20.284.86-26.13 8.538c-10.886 14.29-26.758 15.453-29.297 12.314 2.934.146 6.166-1.308 9.62-4.577 2.16-2.047 3.91-5.38 5.662-7.866zM188.844 124.06s22.503-7.736 18.23-15.57c-4.274-7.837-.876-12.106-.876-12.106s12.57 9.38 9.364 19.353c-1.968 6.12-5.27 10.553-23.4 19.05-8.695 16.15-1.795 45.224-2.206 45.36-.69.23-12.21-5.693-11.422-32.893.24-8.353.908-19.756 10.31-23.193zM159.353 40.865c9.434 4.794 22.364 11.47 22.364 11.47l-5.087 2.546c.486.788.72 1.257.72 1.257l-5.222 2.375s-12.75 9.235-20.56 15.173c2.6-8.02 10.246-20.618 10.246-20.618s2.17-5.79-2.46-12.202zM128.005 236.288c29 0 38.826-14.725 38.826-14.725L162.3 232.6c-1.712 4.776-19.992 19.637-34.25 19.637"/><path fill="#E78825" d="M163.655 211.614s-2.672 16.31-13.354 16.31c-9.078 0-11.754-13.777-11.754-16.625l25.11.314zM181.437 187.017c-.95-2.613-4.273-13.18-5.344-22.795-1.28-11.517-.81-28.36-.81-28.36s2.85 11.04 5.34 12.825c2.496 1.78 7.124 13.888 7.124 13.888s2.48 18.027 3.66 24.086c-3.266.655-6.014-1.27-9.97.357zM207.242 115.56s-6.056-2.14-7.836-15.315c-1.78-13.18 2.138-24.577 2.138-24.577s-.358 18.165 1.78 21.727c2.14 3.562 3.918 4.63 6.412 9.26 2.492 4.632-1.07 7.48-2.494 8.905z"/><path fill="#FDC169" d="M200.012 30.045l1.238-.783c3.645.124-1.238.783-1.238.783z"/><path fill="#FBAA1B" d="M154.423 36.964s5.7-.95 8.548-5.223c2.85-4.274 10.926-12.823 23.795-12.92 12.868-.095 25.598 3.42 25.598 3.42l-11.114 7.023c-1.176-.038-3.232-.022-6.633.09-13.944.464-16.09 14.26-16.09 14.26l-49.152-6.768"/><path fill="#FFF" d="M149.675 113.157s6.65 6.65 16.86 4.51c10.21-2.135 16.385-6.647 16.86-14.484.475-7.836-2.136-10.923-2.136-10.923s-11.4 3.564-16.862 8.314c-5.46 4.75-9.497 12.346-14.723 12.583z"/><path fill="#C9C9C9" d="M157.72 110.78s5.77 2.635 12.212.49c8.44-2.814 9.002-11.59 9.002-11.59s5.173 15.19-9.34 18.115c-11.637 2.345-18.522-4.4-18.522-4.4l6.648-2.614z"/><path fill="#463117" d="M195.418 53.584c4.704-3.902 1.2-7.524 1.572-11.958.2-2.36.385-4.585 1.163-5.813 4.33-6.835 14.54-8.91 14.645-8.93l4.793-.94-3.172-3.71c-.41-.482-13.44-12.913-33.605-6.403-14.1 4.55-24.542 19.973-24.93 20.596l7.07 3.325c.085-.13 8.34-14.628 20.44-18.53 9.78-3.156 18.794-.154 22.653 1.814-4.102 1.64-9.47 4.623-12.705 9.73-1.524 2.41-1.78 5.446-2.027 8.386-.328 3.892-.637 7.566-3.502 9.945l7.608 2.49zM207.978 110.55s-5.923-7.348-7.68-21.647c-.69-5.632.534-16.74 2.493-21.015-.355 10.507 2.318 21.015 2.318 21.015s1.802 19.51 2.87 21.648z"/><path fill="#463117" d="M176.732 46.162c.003-.016 1.902-8.312 7.166-12.5 7.424-5.906 16.49-2.764 16.575-2.737l1.32-4.067c-.44-.143-10.8-3.408-20.354 3.305-9.608 6.75-10.758 12.87-10.86 13.547l6.152 2.452zM189.368 105.28s3.11-4.45 2.547-9.346c-.275-2.417-1.396-4.9-3.396-5.78-3.718-1.632-5.365 2.58-5.365 2.58s5.232 1.292 6.213 12.546z"/><path fill="#463117" d="M155.23 112.064c-.13.243-.196.378-.196.378s9.694 7.278 19.633-.107c5.323-3.957 4.82-13.744 3.187-17.895-4.236.96-7.83 2.692-10.836 4.714 3.798-3.39 7.122-5.884 7.11-5.94l4.32-1.223 8.387-2.874c.107.64 3.167 14.98-5.668 24.753-3.914 4.332-22.265 14.035-30.975-2.556l5.04.75z"/><path fill="#463117" d="M156.137 113.13c-5.46 8.31-19.232 3.562-18.994-5.223 0 0 9.202 5.08 17.334-4.273 4.748-5.46 19.965-20.517 40.596-15.513-14.248 3.133-33.112 16.15-38.936 25.01zM197 136.583c-1.313.76-5.948 5.556-5.948 12.73-.003 3.6.356 21.673 2.14 32.715-2.68 1.74-4.546 2.11-7.213 3.884-1.336-12.788-2.297-31.323-1.847-38.806.51-8.53 5.075-14.253 9.31-16.694 1.325-.763 2.712-1.513 4.11-2.267 7.254-3.92 14.755-7.974 14.755-14.897 0-5.416-2.108-7.11-4.337-8.905l-.236-.195c-1.48-1.195-3.156-2.55-4.145-4.776-2.708-6.084-3.152-21.583-.004-25.518 1.57-1.96 5.778-8.553 4.57-12.983-.464-1.69-1.53-2.943-3.263-3.83-1.835-.94-4.31-1.417-7.364-1.417-5.99 0-12.64 1.824-16.066 2.91-12.253 3.884-27.04 15.08-31.28 18.42-.12.094-.19.15-.204.158l-2.714 1.887 1.696-2.838c.107-.178 10.847-17.84 30.054-24.317 3.737-1.26 11.078-3.374 18.293-3.374 4.295 0 7.936.75 10.825 2.227 3.518 1.8 5.9 4.67 6.89 8.3 2.425 8.896-5.475 18.8-5.744 19.117-.92 1.644-1.31 13.587.815 18.367.293.66 1.095 1.31 2.113 2.13.318.256.67.524 1.05.81 3.003 2.265 7.54 5.688 7.54 13.578 0 10.797-10.942 16.65-19.733 21.357-1.444.777-2.823 1.51-4.064 2.228z"/><path fill="#463117" d="M183.948 52.314c-1.74-2.948-6.19-8.64-16.45-13.64-11.448-5.58-24.698-8.413-39.387-8.42v-.003h-.027-.028v.002c-14.69.007-27.943 2.84-39.388 8.42-10.258 5-14.708 10.693-16.45 13.64l-.747.99 8.785 1.954.278-.352.147-.322c.136-.58 1.313-3.715 11.108-8.49 10.47-5.108 22.683-7.697 36.294-7.7 13.613.003 25.82 2.592 36.29 7.7 9.795 4.775 10.976 7.91 11.11 8.49l.147.322.274.352 8.788-1.955-.744-.986z"/><path fill="#463117" d="M195.418 53.584c4.704-3.902 1.2-7.524 1.572-11.958.2-2.36.385-4.585 1.163-5.813 4.33-6.835 14.54-8.91 14.645-8.93l4.793-.94-3.172-3.71c-.41-.482-13.44-12.913-33.605-6.403-14.1 4.55-24.542 19.973-24.93 20.596l7.07 3.325c.085-.13 8.34-14.628 20.44-18.53 9.78-3.156 18.794-.154 22.653 1.814-4.102 1.64-9.47 4.623-12.705 9.73-1.524 2.41-1.78 5.446-2.027 8.386-.328 3.892-.637 7.566-3.502 9.945l7.608 2.49z"/><path fill="#463117" d="M186.364 51.368l.99-.824c2.634-2.185 2.93-5.714 3.248-9.466.255-3.02.52-6.142 2.136-8.696 2.972-4.69 7.676-7.63 11.552-9.376-2.32-.983-6.68-2.448-12.056-2.448-2.97 0-5.867.45-8.624 1.34-11.223 3.62-19.154 16.7-20.052 18.233l-.337.533-8.364-3.934.425-.68c.1-.158 10.598-16.15 25.318-20.897 3.937-1.272 7.893-1.913 11.76-1.913 14.166 0 22.532 8.446 22.603 8.53l3.97 4.64-5.988 1.174c-.1.02-10.06 2.104-14.184 8.613-.684 1.082-.863 3.222-1.057 5.493-.112 1.35.172 2.667.448 3.94.6 2.76 1.216 5.613-2.273 8.505l-.303.25-9.208-3.017z"/><path fill="#463117" d="M176.732 46.162c.003-.016 1.902-8.312 7.166-12.5 7.424-5.906 16.49-2.764 16.575-2.737l1.32-4.067c-.44-.143-10.8-3.408-20.354 3.305-9.608 6.75-10.758 12.87-10.86 13.547l6.152 2.452z"/><path fill="#463117" d="M169.794 44.165l.083-.558c.104-.706 1.307-7.104 11.153-14.026 4.05-2.845 8.905-4.35 14.037-4.35 3.893 0 6.643.855 6.947.953l.676.22-1.765 5.424-.68-.226c-.255-.085-2.545-.82-5.626-.82-3.95 0-7.406 1.157-10.275 3.443-5.034 4.004-6.898 12.016-6.915 12.095l-.185.815-7.45-2.968zm30.218-14.12l.877-2.7c-1.035-.264-3.13-.69-5.822-.69-4.906 0-9.353 1.377-13.216 4.092-8.08 5.68-10.012 10.812-10.45 12.523l4.85 1.93c.633-2.254 2.733-8.538 7.205-12.096 3.086-2.452 6.945-3.75 11.163-3.75 2.424 0 4.378.42 5.392.69zM145.366 221.83c-3.67-3.924-5.84-8.146-6.365-9.443-.3-.74-.64-2.147.435-3.253.84-.857 2.293-1.296 4.326-1.296h3.13c3.26 0 7.072 0 9.34.002l1.902.003c2.67 0 3.987.764 4.62 1.404.92.932 1.065 2.23.43 3.852-1.698 4.336-5.553 7.876-6.692 8.857-1.493 1.29-3.635 2.052-5.74 2.052-2.158 0-4.07-.775-5.384-2.18zM148.542 113.62l7.594-.49s-1.94 3.424-3.198 7.852c-1.42 5.01 1.3 12.33 1.3 12.33s-10.132-11.47-5.696-19.693z"/><path fill="#E78825" d="M128.084 86.49c-4.843 0-11.157-.132-15.894-3.536 0 0 6.203 10.874 15.886 10.874l.008-1.376.008 1.376c9.684 0 15.886-10.874 15.886-10.874-4.737 3.404-11.055 3.537-15.894 3.537z"/><path fill="#463117" d="M141.418 86.44c-4.858 2.94-9.196 3.957-13.334 4.048-4.14-.09-8.476-1.11-13.334-4.05 0 0 7.074 8.633 13.298 8.7v.005c.01 0 .022-.003.035-.003.01 0 .022.003.035.003v-.005c6.223-.067 13.3-8.7 13.3-8.7zM158.027 244.074l-.542-7.04c22.81-1.756 29.998-23.616 30.035-25.917h7.063c.003 5.322-9.515 30.88-36.556 32.957z"/><path fill="#FFF" d="M165.626 198.29c.425-2.444.466-4.76-.05-7.036 2.06-1.545 5.744-2.12 8.512-3.016 2.263-1.432 13.845 1.468 22.246-8.7 10.526-12.73 8.308-20.33 8.308-20.33 2.7 2.998 5.314 1.855 9.43 15.836 4.12 13.984-1.936 23.733-13.217 33.52-5.33 4.623-12.865 6.528-19.345 7.257 2.17-2.18-3.708-2.397-7.758-3.913.324-3.272-.22-6.448-2.66-9.005-1.467-1.542-3.363-2.463-5.325-3.198-.11-.254-.205-.488-.307-.73.063-.225.125-.45.166-.685z"/><path fill="#C9C9C9" d="M173.8 211.82c.237-.686.41-1.386.585-2.09.19-.77 1.123-2.95-.028-.46.296-.637.49-1.294.63-1.956 18.272-.023 34.167-12.567 31.093-38.94 2.392-3.176 5.743 6.402 5.743 6.402s9.147 26.56-14.476 36.852c-7.87 3.433-14.827 5.893-16.468 4.9-3.423.695-6.51-1.69-7.663-3.256.216-.48.418-.963.583-1.45z"/><path fill="#463117" d="M165.953 194.465c-.025-2.226-.483-4.382-1.556-6.53-.076-.15-.163-.29-.243-.435 7.03-.06 15.128-.734 22.023-3.493 7.578-3.03 17.058-13.403 18.688-25.588 0 0 14.273 11.013 10.08 34.586-3.94 22.136-22.462 29.353-43.587 30.574-.01-.143 2.377-5.075 1.622-8.094 11.993.872 25.407-3.763 31.887-14.418 5.925-9.753 4.263-26.403 1.826-28.843-5.943 18.755-27.33 22.567-40.74 22.24zM174.483 200.017c-2.524-2.728-7.164-5.98-17.864-5.98l-28.5-.018h-.035-.035l-28.504.016c-10.697 0-15.337 3.253-17.862 5.98-3.678 3.972-4.255 9.496-1.71 16.4 6.762 18.38 16.265 37.05 48.075 37.077v.003c.01 0 .02-.003.034-.003.01 0 .022.003.035.003v-.003c31.807-.028 41.31-18.698 48.073-37.076 2.545-6.905 1.967-12.43-1.71-16.4zm-4.952 15.11c-3.22 9.23-11.88 31.568-41.447 31.606-29.572-.04-38.227-22.376-41.45-31.605-1.782-5.12-1.646-8.91.418-11.263 1.41-1.61 4.65-3.53 12.03-3.53l7.712-.002c5.69-.005 12.832-.01 21.29-.014 8.457.002 15.604.008 21.29.013l7.71.003c7.383 0 10.62 1.92 12.03 3.53 2.065 2.355 2.202 6.142.42 11.262z"/><path fill="#463117" d="M163.74 181.04c3.803 11.155 11.567 20.184 11.567 20.184s-10.68-.486-11.27-2.376c-.435-1.393-9.644-22.95-13.178-48.202 3.32 5.462 12.554 29.438 12.88 30.393z"/></svg>