<svg version="1.2" baseProfile="tiny" xmlns="http://www.w3.org/2000/svg" viewBox="0 0 256 256"><path fill="#E94B4C" d="M127.634 199.41h-.257.128c-18.907-.014-35-2.896-41.306-6.95l7.727 12.366 2.82 38.502s30.803 21.762 61.254 0l2.236-38.92 6.66-10.894c-7.284 3.49-22.17 5.884-39.39 5.897h.128zm41.74-52.637c-1.344 1.015-2.66 1.803-3.94 2.358-1.283.557-2.656.837-4.12.837-1.373 0-2.433-.3-3.184-.9-.75-.6-1.124-1.422-1.124-2.47v-.24c0-.075.01-.168.028-.274.072-.64.353-1.38.84-2.215s1.074-1.7 1.76-2.6c.686-.898 1.418-1.807 2.195-2.727.776-.918 1.493-1.79 2.154-2.615.658-.82 1.205-1.576 1.638-2.262.435-.685.65-1.24.65-1.67 0-.255-.09-.46-.27-.61-.18-.148-.48-.224-.894-.224-.723 0-1.468.187-2.235.56-.768.375-1.527.878-2.277 1.51-.75.63-1.48 1.354-2.195 2.166-.71.814-1.38 1.658-2.003 2.535-.623.878-1.19 1.76-1.706 2.65s-.953 1.705-1.314 2.453l-.46.995c-.2.428-.417.91-.652 1.444-.235.535-.484 1.087-.745 1.652-.263.568-.502 1.103-.72 1.605l-.58 1.347c-.173.395-.295.67-.366.82-.09.192-.24.554-.447 1.09-.208.534-.447 1.16-.718 1.876l-.855 2.263c-.297.79-.578 1.54-.84 2.246s-.493 1.327-.69 1.862c-.2.534-.326.898-.38 1.09-.18.556-.392 1.08-.635 1.573-.244.49-.524.925-.84 1.3-.316.374-.68.674-1.085.898-.407.226-.863.337-1.367.337-.65 0-1.188-.156-1.613-.466-.423-.31-.636-.904-.636-1.78 0-.43.053-.868.16-1.317.11-.45.246-.895.408-1.332.162-.44.33-.867.5-1.283.172-.417.33-.82.473-1.203.977-2.14 1.97-4.285 2.982-6.434 1.01-2.15 1.982-4.278 2.913-6.385.195-.44.37-.87.56-1.307l-.168.168c-1.175 1.135-2.344 2.135-3.508 3-1.167.868-2.323 1.557-3.47 2.07-1.145.514-2.262.77-3.345.77-.74 0-1.358-.117-1.855-.353-.497-.234-.894-.555-1.193-.96-.3-.408-.51-.89-.637-1.445-.043-.19-.07-.39-.097-.587-.317.247-.637.487-.96.715-1.118.79-2.22 1.428-3.305 1.91-1.083.48-2.06.72-2.925.72-.868 0-1.572-.288-2.114-.867-.543-.577-.813-1.562-.813-2.952 0-.984.145-2.13.433-3.434-.47.835-1.057 1.68-1.76 2.535-.705.856-1.51 1.637-2.41 2.344-.905.705-1.916 1.277-3.036 1.715-1.12.44-2.34.658-3.658.658-.596 0-1.17-.074-1.72-.225-.552-.15-1.035-.407-1.45-.77-.416-.362-.75-.85-1.003-1.46-.253-.61-.38-1.375-.38-2.295 0-.02.037-.348.11-.98.07-.63.3-1.625.69-2.984.388-1.358.988-3.12 1.8-5.28.814-2.162 1.96-4.78 3.442-7.86.38-.815.818-1.397 1.313-1.75.497-.353 1.034-.53 1.612-.53.253 0 .515.038.786.112.272.075.524.192.76.353.233.16.423.364.568.61.144.245.217.528.217.85 0 .213-.027.417-.08.608-.092.365-.285.84-.583 1.428-.3.59-.646 1.264-1.044 2.023-.397.76-.818 1.578-1.26 2.456-.443.875-.853 1.786-1.232 2.726-.378.942-.704 1.9-.974 2.872-.27.974-.425 1.92-.46 2.84 0 .385.09.737.27 1.058.18.32.48.48.895.48 1.174 0 2.294-.385 3.36-1.154 1.066-.77 2.05-1.728 2.954-2.872.903-1.144 1.72-2.375 2.452-3.69.732-1.317 1.34-2.52 1.828-3.61.344-.728.646-1.51.908-2.343.262-.835.547-1.604.854-2.31.307-.708.658-1.296 1.057-1.766.397-.47.894-.704 1.49-.704.652 0 1.166.246 1.545.738.38.493.568 1.08.568 1.764 0 .386-.12.915-.364 1.59s-.55 1.443-.923 2.31c-.37.867-.773 1.792-1.206 2.776-.433.984-.836 1.984-1.205 3-.372 1.017-.678 2.012-.922 2.985-.244.973-.365 1.876-.365 2.71 0 .77.397 1.156 1.19 1.156.56 0 1.256-.193 2.087-.578.83-.385 1.703-.926 2.614-1.62.228-.175.457-.356.685-.546.254-1.05.552-2.02.9-2.904.63-1.67 1.272-3.327 1.923-4.974l1.787-4.527 8.21-20.698c.324-.835.762-1.424 1.312-1.766.55-.342 1.107-.513 1.667-.513.558 0 1.068.183 1.53.546.46.364.69.952.69 1.765 0 .386-.077.793-.23 1.22-.153.43-.348.888-.583 1.38-.45 1.006-.988 2.236-1.612 3.69-.623 1.455-1.292 3.038-2.004 4.75-.712 1.712-1.444 3.492-2.193 5.343-.75 1.85-1.48 3.653-2.194 5.407-.712 1.756-1.382 3.418-2.004 4.99-.624 1.572-1.16 2.937-1.613 4.09-.2.494-.393 1.066-.582 1.72-.19.65-.284 1.234-.284 1.748 0 .32.055.577.163.77.108.19.316.288.623.288.38 0 .852-.133 1.422-.402.57-.267 1.182-.62 1.842-1.06.66-.44 1.346-.94 2.06-1.51.713-.566 1.422-1.154 2.126-1.763.705-.61 1.378-1.22 2.02-1.83.64-.608 1.214-1.17 1.72-1.683.12-.123.26-.21.416-.277.305-.91.583-1.803.828-2.675.145-.386.344-.93.597-1.637.252-.707.542-1.402.867-2.086.325-.684.69-1.278 1.097-1.78.408-.503.846-.755 1.316-.755.723 0 1.247.166 1.572.497.325.333.487.82.487 1.462 0 .128-.017.33-.054.61-.036.277-.08.573-.134.882s-.113.605-.175.883c-.064.28-.12.48-.174.61.667-.728 1.39-1.45 2.166-2.165.777-.716 1.58-1.365 2.41-1.942.832-.578 1.68-1.048 2.548-1.413.867-.363 1.734-.545 2.6-.545.596 0 1.188.086 1.774.257s1.113.423 1.572.754c.46.333.836.75 1.124 1.25.288.503.433 1.087.433 1.75 0 .877-.22 1.813-.663 2.808s-.997 1.995-1.666 3c-.668 1.006-1.39 1.983-2.166 2.936-.777.952-1.504 1.817-2.18 2.598-.68.783-1.25 1.444-1.708 1.99-.46.547-.7.916-.718 1.108 0 .256.082.465.244.626.162.16.433.24.812.24.308 0 .76-.17 1.356-.514.596-.342 1.432-.936 2.506-1.78 1.074-.847 2.44-1.98 4.092-3.403 1.133-.975 2.46-2.137 3.955-3.46l7.646-66.348h-.052c-7.753 3.713-29.538 7.635-55.203 7.635-25.66 0-47.447-3.922-55.202-7.635h-.064l5.81 60.9c.308-1.05.65-2.098 1.03-3.14.776-2.14 1.676-4.232 2.696-6.275 1.02-2.042 2.13-3.974 3.333-5.792 1.2-1.818 2.478-3.492 3.833-5.022 1.355-1.53 2.745-2.845 4.173-3.947 1.427-1.1 2.867-1.962 4.32-2.582 1.455-.62 2.896-.93 4.323-.93 1.642 0 3.232.45 4.767 1.347 1.535.9 2.97 2.354 4.308 4.365.307.45.5.904.582 1.364.082.46.122.894.122 1.3 0 .963-.23 1.723-.69 2.278-.46.556-1.008.834-1.64.834-.578 0-1.115-.305-1.612-.914-.497-.61-1.052-1.48-1.667-2.616-.577-1.027-1.214-1.77-1.91-2.23-.695-.46-1.448-.69-2.26-.69-1.265 0-2.615.524-4.05 1.572-1.437 1.048-2.86 2.434-4.268 4.156-1.41 1.722-2.76 3.69-4.05 5.904-1.292 2.214-2.435 4.482-3.428 6.803-.994 2.324-1.783 4.612-2.37 6.87-.587 2.256-.88 4.284-.88 6.08 0 .6.04 1.216.12 1.845.082.63.235 1.203.46 1.718.227.514.534.935.922 1.267.39.333.88.497 1.476.497.67 0 1.427-.224 2.276-.674.848-.447 1.73-1.037 2.64-1.763.913-.73 1.83-1.55 2.75-2.472.923-.92 1.78-1.85 2.575-2.792.794-.94 1.5-1.845 2.113-2.71.614-.868 1.075-1.622 1.382-2.265l2.52-7.54c.307-.812.71-1.39 1.206-1.733.496-.342 1.007-.513 1.53-.513.253 0 .506.043.76.128.252.086.477.22.677.4.2.183.358.418.475.707.117.288.175.625.175 1.01 0 1.026-.09 1.988-.27 2.887-.18.9-.412 1.776-.69 2.632-.28.853-.593 1.715-.936 2.582-.343.867-.678 1.77-1.003 2.712-.07.107-.2.444-.392 1.01-.19.567-.42 1.277-.69 2.134-.272.856-.566 1.813-.882 2.872-.316 1.06-.64 2.14-.975 3.24-.334 1.102-.654 2.183-.96 3.24-.308 1.06-.584 2.017-.827 2.873-.244.855-.447 1.572-.61 2.15-.162.578-.262.92-.298 1.028-.09.34-.235.722-.433 1.14-.2.416-.434.814-.705 1.188-.27.374-.57.685-.894.93-.325.246-.66.37-1.003.37-.578 0-.998-.194-1.26-.58-.26-.385-.392-1.09-.392-2.117v-.448c0-.15.01-.31.026-.48.017-.343.153-.985.407-1.927.254-.94.556-2.004.91-3.19.35-1.19.73-2.42 1.137-3.693.406-1.274.772-2.41 1.097-3.418-.958 1.07-1.996 2.135-3.116 3.193-1.12 1.06-2.268 2.01-3.44 2.857-1.175.846-2.358 1.535-3.55 2.07-1.192.534-2.34.802-3.44.802-1.265 0-2.354-.28-3.266-.835-.165-.1-.32-.213-.475-.326l3.69 38.696 2.15 3.436c6.305 4.053 22.398 6.936 41.305 6.95 17.223-.015 32.107-2.407 39.39-5.898l2.748-4.49 5.3-45.993c-.438.402-.864.794-1.272 1.174-1.515 1.422-2.947 2.636-4.293 3.653zM128 59.778c-30.555 0-55.325 2.87-55.325 6.413 0 3.54 24.77 8.748 55.325 8.748 30.56 0 55.325-5.207 55.325-8.747S158.56 59.78 128 59.78zm9.867 10.12c-3.538 0-6.685-1.07-6.685-1.992 0-.353.466-.728 1.235-1.056.427-.786 2.7-1.387 5.45-1.387 2.705 0 4.954.582 5.43 1.35.846.337 1.37.727 1.37 1.093 0 .92-3.262 1.99-6.8 1.99zm0-1.128c3.052 0 5.528-.74 5.528-1.654 0-.104-.035-.205-.097-.304-1.277-.51-3.3-.897-5.43-.897-2.18 0-4.21.407-5.45.935-.046.087-.078.175-.078.267 0 .913 2.473 1.653 5.527 1.653zM178.18 8.555L170.79 3l-29.755 31.31-8.485 32.764h10.724l8.298-29.063 26.61-29.455z"/></svg>