<svg version="1.2" baseProfile="tiny" xmlns="http://www.w3.org/2000/svg" viewBox="0 0 256 256"><path fill="#FFF" stroke="#505050" stroke-width="2" d="M215.498 127.96v105.406c0 3.664-2.97 6.633-6.633 6.633H47.133c-3.662 0-6.633-2.97-6.633-6.634V127.96c0-3.663 2.97-6.632 6.633-6.632h161.733c3.665 0 6.633 2.968 6.633 6.633h-.002z"/><path fill="#FFF" stroke="#505050" stroke-width="2" d="M215.498 127.96v105.406c0 3.664-2.97 6.633-6.633 6.633H47.133c-3.662 0-6.633-2.97-6.633-6.634V127.96c0-3.663 2.97-6.632 6.633-6.632h161.733c3.665 0 6.633 2.968 6.633 6.633h-.002z"/><path fill="#FFF" stroke="#505050" d="M58.126 130.162H197.78v100.496H58.127V130.162z"/><circle fill="none" stroke="#505050" cx="206.123" cy="180.4" r="4.429"/><circle fill="none" stroke="#505050" cx="49.837" cy="180.968" r="1.651"/></svg>