<svg version="1.2" baseProfile="tiny" xmlns="http://www.w3.org/2000/svg" viewBox="0 0 256 256"><path fill="#FFF" stroke="#505050" stroke-width="2" d="M153 233.85c0 3.396-2.766 6.15-6.178 6.15h-37.644c-3.412 0-6.178-2.753-6.178-6.15v-93.033c0-3.396 2.766-6.15 6.178-6.15h37.644c3.41 0 6.177 2.753 6.177 6.15v93.033z"/><path fill="#FFF" stroke="#505050" d="M106.46 148.48h43.05v76.57h-43.05v-76.57z"/><path fill="none" stroke="#505050" d="M132.616 144.537c0 .245-.17.44-.377.44h-7.732c-.21 0-.377-.196-.377-.44v-.992c0-.245.17-.44.378-.44h7.73c.21 0 .378.196.378.44v.992z"/><circle fill="none" stroke="#505050" cx="128.385" cy="139.251" r="1.154"/><ellipse fill="none" stroke="#505050" cx="128.015" cy="232.326" rx="3.861" ry="3.846"/></svg>