<svg version="1.2" baseProfile="tiny" xmlns="http://www.w3.org/2000/svg" viewBox="0 0 256 256"><path fill="#F6DF1B" d="M3 3h250v250H3z"/><path fill="#010101" d="M68.734 211.918l19.132-11.578c3.69 6.544 7.05 12.08 15.102 12.08 7.72 0 12.587-3.02 12.587-14.765v-79.88h23.494v80.212c0 24.333-14.264 35.41-35.074 35.41-18.794 0-29.703-9.735-35.24-21.48M151.81 209.4l19.13-11.075c5.035 8.224 11.58 14.265 23.158 14.265 9.735 0 15.942-4.867 15.942-11.58 0-8.055-6.376-10.908-17.117-15.606l-5.872-2.52c-16.95-7.214-28.193-16.276-28.193-35.407 0-17.62 13.425-31.047 34.403-31.047 14.936 0 25.676 5.203 33.394 18.796l-18.292 11.747c-4.028-7.215-8.39-10.068-15.102-10.068-6.88 0-11.244 4.363-11.244 10.068 0 7.05 4.364 9.902 14.432 14.265l5.873 2.517c19.97 8.56 31.215 17.285 31.215 36.918 0 21.146-16.614 32.724-38.933 32.724-21.816 0-35.913-10.402-42.792-23.996"/></svg>