<svg version="1.2" baseProfile="tiny" xmlns="http://www.w3.org/2000/svg" viewBox="0 0 256 64"><path fill="#FFF" d="M90.946 35.807L89.448 40h-.086c-.268-.982-.717-2.376-1.42-4.147l-8.02-20.118h-7.84V47.72h5.17V28.058c0-1.214-.025-2.68-.076-4.36-.027-.848-.123-1.53-.147-2.047h.113c.263 1.206.536 2.124.733 2.738l9.617 23.332h3.618l9.546-23.543c.217-.537.446-1.584.657-2.527h.113c-.125 2.33-.23 4.46-.245 5.744V47.72h5.518V15.735h-7.53l-8.222 20.072zM111.892 24.798h5.392V47.72h-5.392zM114.643 15.057c-.89 0-1.66.303-2.297.9-.638.6-.962 1.358-.962 2.25 0 .878.32 1.62.95 2.204.63.584 1.406.88 2.31.88.902 0 1.68-.297 2.317-.88.64-.585.965-1.326.965-2.204 0-.86-.315-1.61-.938-2.224-.622-.613-1.41-.925-2.344-.925zM136.373 24.57c-1.037-.215-2.05-.324-3.013-.324-2.475 0-4.68.53-6.558 1.576-1.88 1.048-3.335 2.544-4.324 4.447-.987 1.897-1.486 4.113-1.486 6.586 0 2.166.486 4.152 1.443 5.905.96 1.756 2.317 3.13 4.035 4.08 1.717.95 3.7 1.433 5.894 1.433 2.562 0 4.75-.512 6.504-1.522l.07-.04v-4.94l-.225.165c-.796.58-1.684 1.04-2.638 1.373-.953.332-1.822.5-2.584.5-2.115 0-3.812-.66-5.046-1.966-1.236-1.307-1.862-3.14-1.862-5.45 0-2.324.653-4.207 1.94-5.595 1.284-1.385 2.986-2.087 5.057-2.087 1.772 0 3.5.6 5.133 1.785l.226.164v-5.206l-.073-.04c-.614-.345-1.454-.63-2.494-.845zM154.138 24.4c-1.354 0-2.567.436-3.606 1.294-.912.752-1.57 1.785-2.075 3.074h-.057v-3.97h-5.392V47.72h5.392V35.994c0-1.994.452-3.632 1.344-4.868.88-1.222 2.054-1.842 3.487-1.842.487 0 1.032.08 1.623.238.584.157 1.007.33 1.257.508l.227.164v-5.436l-.087-.037c-.5-.212-1.212-.32-2.112-.32zM168.783 24.246c-3.78 0-6.783 1.108-8.922 3.292-2.14 2.184-3.223 5.207-3.223 8.987 0 3.59 1.06 6.475 3.147 8.578 2.088 2.103 4.93 3.17 8.446 3.17 3.663 0 6.606-1.123 8.746-3.337 2.138-2.213 3.223-5.206 3.223-8.897 0-3.648-1.02-6.555-3.025-8.644-2.007-2.09-4.83-3.15-8.392-3.15zm4.287 17.65c-1.013 1.27-2.537 1.913-4.53 1.913-1.98 0-3.544-.657-4.644-1.95-1.107-1.302-1.67-3.156-1.67-5.513 0-2.43.563-4.333 1.67-5.656 1.102-1.314 2.65-1.98 4.6-1.98 1.89 0 3.398.636 4.478 1.895 1.085 1.264 1.635 3.15 1.635 5.61 0 2.49-.52 4.4-1.54 5.68zM192.158 34.27c-1.7-.683-2.79-1.25-3.236-1.683-.433-.42-.653-1.013-.653-1.765 0-.667.27-1.2.828-1.633.56-.436 1.342-.657 2.322-.657.91 0 1.84.143 2.766.425.924.28 1.736.658 2.415 1.12l.224.15v-4.983l-.087-.037c-.625-.268-1.45-.497-2.45-.683-1-.185-1.905-.278-2.69-.278-2.572 0-4.7.658-6.324 1.954-1.634 1.305-2.463 3.016-2.463 5.086 0 1.076.178 2.032.53 2.84.354.815.904 1.532 1.632 2.133.722.595 1.84 1.22 3.318 1.855 1.242.51 2.17.944 2.76 1.286.575.335.983.67 1.213.998.225.32.34.757.34 1.3 0 1.54-1.155 2.288-3.527 2.288-.88 0-1.884-.184-2.984-.545-1.1-.36-2.13-.882-3.056-1.55l-.226-.162v5.256l.082.038c.773.356 1.746.657 2.894.894 1.147.237 2.188.357 3.09.357 2.79 0 5.037-.66 6.677-1.965 1.65-1.312 2.486-3.064 2.486-5.207 0-1.544-.45-2.87-1.338-3.937-.882-1.06-2.41-2.033-4.544-2.893zM212.537 24.246c-3.78 0-6.782 1.108-8.922 3.292-2.14 2.184-3.224 5.207-3.224 8.987 0 3.59 1.06 6.475 3.15 8.578 2.087 2.103 4.93 3.17 8.445 3.17 3.663 0 6.606-1.123 8.746-3.337 2.14-2.213 3.225-5.206 3.225-8.897 0-3.648-1.018-6.555-3.025-8.644-2.008-2.09-4.832-3.15-8.393-3.15zm4.288 17.65c-1.013 1.27-2.538 1.913-4.53 1.913-1.982 0-3.544-.657-4.645-1.95-1.107-1.302-1.668-3.156-1.668-5.513 0-2.43.562-4.333 1.67-5.656 1.1-1.314 2.647-1.98 4.598-1.98 1.892 0 3.4.636 4.48 1.895 1.084 1.264 1.634 3.15 1.634 5.61 0 2.49-.52 4.4-1.54 5.68zM252.704 29.196V24.8h-5.46V17.96l-.184.056-5.13 1.57-.1.03v5.18h-8.09v-2.884c0-1.343.3-2.372.894-3.057.588-.68 1.43-1.023 2.5-1.023.77 0 1.57.182 2.374.54l.2.09v-4.632l-.093-.034c-.75-.27-1.77-.407-3.033-.407-1.593 0-3.04.35-4.3 1.035-1.264.69-2.258 1.67-2.953 2.92-.695 1.246-1.047 2.686-1.047 4.28v3.173h-3.802v4.397h3.803V47.72h5.458V29.196h8.09v11.772c0 4.847 2.288 7.305 6.798 7.305.74 0 1.522-.087 2.318-.257.81-.175 1.363-.35 1.688-.536l.072-.04V43l-.222.147c-.296.198-.665.36-1.098.48-.434.12-.797.182-1.078.182-1.057 0-1.84-.286-2.324-.847-.49-.567-.74-1.558-.74-2.946v-10.82h5.46z"/><path fill="#F05125" d="M2.704 5.05H28.07v25.366H2.703z"/><path fill="#7FBB42" d="M30.71 5.05h25.363v25.365H30.71z"/><path fill="#33A0DA" d="M2.704 33.066h25.364V58.43H2.704z"/><path fill="#FDB813" d="M30.71 33.066h25.363V58.43H30.71z"/></svg>