<svg xmlns="http://www.w3.org/2000/svg" xmlns:xlink="http://www.w3.org/1999/xlink" viewBox="-147 -147 627.2 627.2" width="256" height="256"><g transform="matrix(2.085 0 0 2.085 166.6 166.6)" id="d"><g id="c"><g id="b"><path d="M7.2-47L6-68H-6l-1.236 21" id="a"/><use height="100%" width="100%" transform="scale(1 -1)" xlink:href="#a"/></g><use height="100%" width="100%" transform="rotate(90)" xlink:href="#b"/></g><use height="100%" width="100%" transform="rotate(45)" xlink:href="#c"/></g><use height="100%" width="100%" transform="matrix(.924 .383 -.383 .924 76.437 -51.073)" xlink:href="#d"/><circle cy="166.6" cx="166.6" r="47.964"/><g transform="matrix(2.085 0 0 2.085 166.6 166.6)" fill="none" stroke="#000"><path d="M0 87c-66 0-117-54-138.5-87C-117-33-66-87 0-87S117-33 138.5 0C117 33 66 87 0 87z" stroke-width="14"/><circle r="47.5" stroke-width="19"/></g></svg>
