<svg version="1.2" baseProfile="tiny" xmlns="http://www.w3.org/2000/svg" viewBox="0 0 256 256"><circle fill="#50A3DA" cx="128.185" cy="120.141" r="97.09"/><circle fill="#F04D43" cx="128.526" cy="120.379" r="64.716"/><circle fill="#F7EC32" cx="128.526" cy="120.376" r="32.801"/><path fill="none" d="M237.07 165.248c-24.544 60.238-93.275 89.173-153.513 64.628C23.322 205.334-5.615 136.6 18.934 76.364c24.54-60.24 93.273-89.17 153.51-64.625 60.23 24.544 89.17 93.272 64.625 153.508z"/><path fill="none" stroke="#4D4D4D" stroke-width="1.773" stroke-miterlimit="10" d="M60.034 244.576h126.772"/><path fill="#4D4D4D" d="M197.47 243.68c.88.422.886 1.124.013 1.56l-11.783 5.91c-.872.437-1.555-.004-1.555-.98v-11.14c0-.975.688-1.427 1.567-1.006l11.76 5.656z"/><path fill="none" stroke="#4D4D4D" stroke-width="1.773" stroke-miterlimit="10" d="M71.183 236.154l8.495 8.422M64.978 236.154l8.495 8.422M58.772 236.154l8.495 8.422M67.268 244.578L58.77 253M73.473 244.578L64.977 253M79.68 244.578L71.182 253M77.39 236.154l8.495 8.422M85.884 244.578L77.388 253"/></svg>