<svg version="1.2" baseProfile="tiny" xmlns="http://www.w3.org/2000/svg" viewBox="0 0 256 256"><path fill="#72CADA" d="M25.366 135.778c-9.328.07-17.23-5.487-20.143-14.163-.112-.336-.21-.662-.302-.99-3.175-11.11 2.982-22.735 14.016-26.456L195.92 34.874c2.15-.616 4.318-.93 6.464-.944 9.576-.074 17.695 5.607 20.68 14.467l.265.856c3.31 11.573-4.916 21.902-14.772 25.213-.007.005-1.8.61-176.003 60.087-2.355.8-4.77 1.205-7.187 1.228l-.002-.002z"/><path fill="#DF1766" d="M54.866 222.818c-9.4.068-17.33-5.41-20.21-13.963-.11-.328-.212-.654-.306-.985-3.217-11.243 2.93-22.99 14.002-26.716l176.99-59.837c2.286-.764 4.65-1.155 7.023-1.177 9.426-.07 17.71 5.688 20.632 14.337l.272.9c1.71 5.976.7 12.697-2.7 17.997-2.534 3.944-10.524 7.415-10.524 7.415L62.384 221.535c-2.475.827-5 1.263-7.518 1.285v-.002z"/><path fill="#E8A725" d="M202.2 223.195c-9.44.073-17.8-5.88-20.808-14.81l-59.07-175.454-.294-.984c-3.2-11.19 2.954-22.86 13.985-26.578 2.207-.742 4.49-1.13 6.786-1.15 3.412-.024 6.714.745 9.824 2.28 5.202 2.59 9.092 7.047 10.95 12.552l59.064 175.44.17.563c3.318 11.617-2.824 23.295-13.854 27.013-2.185.73-4.46 1.112-6.757 1.132l.002-.003z"/><path fill="#3FB890" d="M114.398 252.75c-9.44.073-17.805-5.883-20.816-14.822L34.53 62.478c-.103-.323-.205-.645-.303-.976-3.192-11.185 2.944-22.858 13.973-26.58 2.197-.73 4.47-1.115 6.766-1.134 9.44-.075 17.802 5.88 20.81 14.81l59.056 175.456c.11.306.21.645.3.968 3.2 11.194-2.94 22.873-13.986 26.595-2.194.73-4.462 1.114-6.752 1.132h.004z"/><path fill="#CC2128" d="M173.08 183.685l41.185-14.082L200.8 129.62l-41.233 13.935 13.512 40.13z"/><path fill="#361538" d="M85.414 213.658l41.18-14.08-13.565-40.29-41.225 13.94 13.61 40.43z"/><path fill="#66873A" d="M143.757 96.592l41.19-14.063L171.64 43.01l-41.265 13.826 13.382 39.754z"/><path fill="#1E937D" d="M56.08 126.525l41.19-14.063L83.803 72.44 42.536 86.264l13.545 40.26z"/></svg>