<svg version="1.2" baseProfile="tiny" xmlns="http://www.w3.org/2000/svg" viewBox="0 0 256 256"><path fill="#F58456" stroke="#010101" stroke-width="1.054" stroke-linejoin="round" d="M6.536 69.177c17.734-2.945 50.34-2.84 60.536-.24C80.24 72.292 103.805 80.74 131.62 84.51c-30.937 75.47-28.448 64.317-63.75 144.11L6.537 69.177z"/><path fill="#FAAE74" stroke="#010101" stroke-width="1.054" stroke-linejoin="round" d="M15.196 91.61c32.958-7.016 78.126-9.11 112.948.88-26.985 65.333-29.082 67.108-59.874 136.184L15.196 91.61z"/><path fill="#FFD584" stroke="#010101" stroke-width="1.054" stroke-linejoin="round" d="M22.43 110.463c28.124-6.058 67.238-7.42 96.952 1.205-23.027 56.408-25.024 57.373-51.3 117.012l-45.65-118.217z"/><path fill="#939292" stroke="#010101" stroke-width="1.054" stroke-linejoin="round" d="M32.39 136.55c22.006-4.722 52.92-5.942 76.17.78-18.017 43.96-19.888 44.87-40.448 91.35l-35.72-92.13z"/><path fill="#FFD584" stroke="#010101" stroke-width="1.028" stroke-linejoin="round" d="M128.355 92.078l45.728-16.748-57.373 133.854-48.284 19.45 59.93-136.556z"/><path fill="#61CADF" stroke="#010101" stroke-width="1.054" stroke-linejoin="round" d="M53.105 35.528c24.256-3.127 50.9-3.597 75.107-3.69-8.822 9.93-28.39 12.764-44.723 21.012-29.077-.207-55.77 2.012-80.037 6.33l49.652-23.652z"/><path fill="#939292" stroke="#010101" stroke-width="1.054" stroke-linejoin="round" d="M108.476 137.246l46.853-17.89-38.62 88.25-48.272 20.446 40.038-90.806z"/><path fill="#DFDFDE" stroke="#010101" stroke-width="1.058" stroke-linejoin="round" d="M88.766 181.45l45.837-14.39-17.49 41.553-48.677 20.01 20.33-47.173z"/><path fill="#948C73" stroke="#010101" stroke-width=".843" stroke-linejoin="round" d="M93.995 44.047c1.93-.76 3.857.403 5.786-2.414 1.477-1.41 2.438-4.196 6.07.142 3.015-1.926-.845-6.142 12.318-4.685 3.143-2.502 6.73-10.323 9.193-4.685 7.796-9.883 7.275-2.625 9.585-.852 8.04-5.197 8-.27 11.287 1.704 2.72-1.854 5.443-2.01 8.164 1.42 1.865-1.486 7.14-2.923 7.88 3.69 7.063-3.16 7.638 1.347 11.003 2.557 4.775-1.087 10.156-.377 13.426 3.81l-50.13 18.623c-6.026-1.136-15.518-2.272-26.833-3.407L93.995 44.047z"/><path fill="#DCC39A" stroke="#010101" stroke-width=".281" d="M114.157 41.957c8.433 0 9.798-.3 9.798-.3-1.026 1.148-3.16 2.415-5.523 3.03-1.445-.05-2.15-1.406-4.275-2.73z"/><path fill="#DCC39A" stroke="#010101" stroke-width="1.081" stroke-linejoin="round" d="M5.337 65.51c7.64-1.328 16.984-2.857 31.94-4.248 13.057-.654 29.394-1.754 37.29-.11 4.524 1.94 8.765 2.405 15.277 7.393 4.575-.486 10.795-1.55 22.514-1.972 8.706 1.05 17.725 5.564 24.784 5.413l-5.57 12.938c-25.215-3.49-57.17-14.453-62.526-15.753-17.288-4.192-43.49-.317-62.49 0l-1.22-3.66z"/><path fill="#948C73" stroke="#010101" stroke-width="1.054" stroke-linejoin="round" d="M141.318 62.504l47.42-17.806-4.61 9.003-46.688 18.175 3.878-9.37z"/><path fill="#DFDFDE" stroke="#010101" stroke-width="1.054" stroke-linejoin="round" d="M49.45 180.763c11.795-2.447 27.603-3.226 40.065.257-9.657 22.786-10.325 23.405-21.344 47.496l-18.72-47.753z"/><path fill="#DCC39A" stroke="#010101" stroke-width="1.054" stroke-linejoin="round" d="M137.298 71.733l46.71-17.747-5.962 13.63-46.427 17.747 5.678-13.63z"/><path fill="#F58456" stroke="#010101" stroke-width=".967" stroke-linejoin="round" d="M131.584 85.094l46.908-18.173-4.02 8.433-46.304 17.437 3.416-7.696z"/><path fill="#4786C6" stroke="#010101" stroke-width=".843" d="M3.36 59.38l1.555 5.03c23.44-4.22 46.35-9.47 74.882-7.87l3.407-3.974C69.854 50.044 22.034 55.652 3 59.18"/><path fill="#FAAE74" stroke="#010101" stroke-width=".956" stroke-linejoin="round" d="M128.172 92.652l46.197-17.3-8.496 19.38-46.088 17.23 8.386-19.31z"/><path fill="#DCC39A" d="M97.49 44.467c2.525 1.828 4.762 1.93 7.03 2.21l15.66 1.204-6.625 3.013c3.332.297 7.044-.167 11.445-2.008 10.163-2.756 13.5-2.154 15.963-.803 1.807.53.2-.03 1.104-.1-2.147-.74 10.03 1.697 12.85.703 6.204-2.088-11.657-8.2-8.835-10.04 1.916-.89 27.135 3.85 31.725 2.41 2-.644 6.236.116 9.84 3.213l-46.584 17.67c-6.33-.227-9.408-9.148-21.284-4.418-12.07-3.042-16.823-8.714-22.29-13.053z"/><path fill="#948C73" stroke="#010101" stroke-width="1.054" stroke-linejoin="round" d="M5.684 65.858c7.594-.755 20.918-4.453 40.322-4.26 18.655 1.194 25.758-.815 35.45 4.995 1.538 3.067 13.045 7.338 19.996 4.274s5.465-4.68 11.355-3.943c8.89 1.11 11.59 5.92 24.45 4.514 1.194-2.246 1.21-1.876 4.262-9.236-6.015 1.315-10.944-9.725-20.48-4.692-11.17 1-21.118-11.72-26.867-15.26-8.975 3.59-12.013 14.03-14.75 13.954-25.84-.71-58.385 2.77-74.307 7.95l.568 1.704z"/><path fill="none" stroke="#010101" stroke-width=".562" stroke-linecap="round" stroke-linejoin="round" d="M166.688 50.152s-8.198.69-11.926-.71c-2.747-1.033-4.028-5.206-6.957-5.395-2.52-.163-4.066 4.38-6.53 3.833-2.36-.522-1.733-5.583-4.118-5.963-2.7-.43-3.796 4.95-6.53 4.97-1.355.008-1.914-2.356-3.267-2.415-1.72-.075-2.984 1.722-4.4 2.698-2.918 2.007-8.82 4.084-8.804 3.975"/><path fill="none" stroke="#010101" stroke-width=".562" stroke-linecap="round" stroke-linejoin="round" d="M104.217 46.886s4.75-5.514 7.95-5.395c3.502.13 8.236 6.532 8.236 6.532"/><path fill="#DCC39A" d="M134.537 33.524c8.232.402 8.232.2 8.232.2-.647 1.182-1.602 2.13-3.314 2.51-1.947.15-3.498-1.285-4.92-2.71z"/><path fill="none" stroke="#010101" stroke-width=".562" stroke-linecap="round" stroke-linejoin="round" d="M116.71 41.49c.033.05 3.458-4.305 5.396-5.678 1.14-.808 2.32 2.26 3.69 1.988 1.32-.26 1.506-2.284 2.557-3.124 1.157-.925 2.5-2.113 3.975-1.988 1.754.15 2.637 2.44 4.26 3.124 1.06.447 2.28.8 3.407.568 1.71-.354 2.655-2.83 4.4-2.84 2.128-.01 5.396 3.407 5.396 3.407 1.092.992 4.726 2.93 7.526 2.556"/><path fill="#405FAC" stroke="#010101" stroke-width=".28" d="M114.925 42.052c3.225 2.86 4.362 4.96 4.64 4.997.78.108.546.15-3.737 1.715-2.404.88-4.522 1.63-3.68 2.974 2.2 3.51 4.605 5.276 4.913 5.352 1.343.312 2.747.325 3.996.078-3.284-1.9-6.176-4.34-7.6-6.03l5.887-2.277s2.05-.844 1.52-2.177c-1.487-1.474-5.938-4.634-5.938-4.634z"/><path fill="none" stroke="#010101" stroke-width=".562" stroke-linecap="round" stroke-linejoin="round" d="M170.237 44.473c-5.265 2.168-10.705.085-17.18-1.278-4.23-.89-7.614-4.766-11.925-5.11-1.945-.157-3.764 1.79-5.68 1.42-1.263-.247-1.847-2.1-3.123-2.273-.802-.11-1.537.515-2.273.852-1.078.493-2.1 1.105-3.124 1.704-2.313 1.352-4.404 3.092-6.815 4.26-.317.152-.994.354-.994.354"/><path fill="none" stroke="#010101" stroke-width=".281" d="M110.442 45.27c1.802-2.195 4.12.02 4.317.2"/><text transform="translate(142.936 188.322)" fill="#010101" font-family="'SegoeUI-Light'" font-size="10">Component</text><text transform="translate(162.393 143.59)" fill="#010101" font-family="'SegoeUI-Light'" font-size="10">Component2</text><text transform="translate(189.248 81.923)" fill="#010101" font-family="'SegoeUI-Light'" font-size="10">Backbone.View</text><path fill="#010101" d="M162.305 119.357l32.533-74.45-.953-.417-32.715 74.867M141.74 166.417l19.95-45.655h-1.134l-19.95 45.655M139.99 167.822l-17.732 40.582.953.417 17.917-40.998"/></svg>