<svg version="1.2" baseProfile="tiny" xmlns="http://www.w3.org/2000/svg" viewBox="0 0 256 256"><path fill="#0072C6" d="M219.737 71.312c5.034-4.026 6.315-11.286 2.77-16.822-3.136-4.87-9.008-6.886-14.302-5.35-.46.237-.942.497-1.454.772-8.423 4.642-65.36 44.535-58.93 49.037 6.382 4.462 45.314-13.06 71.917-27.638zm0 119.96c-26.603-14.573-65.535-32.095-71.92-27.63-6.426 4.496 50.51 44.396 58.933 49.03.512.28.993.536 1.454.78 5.294 1.543 11.166-.484 14.303-5.353 3.546-5.542 2.264-12.802-2.77-16.828zm23.438-73.095c-.525-.026-1.075-.03-1.65-.03-9.61.017-78.724 7.598-75.255 14.64 3.456 6.97 46.012 10.353 76.345 10.365 6.356-1.102 10.96-6.847 10.522-13.415-.408-5.764-4.592-10.374-9.962-11.56zM60.206 178.12c-7.917 22.353-15.243 32.82-32.078 32.82-1.627 0-7.29-.334-7.657-.368-5.43-.28-10.5 3.255-11.965 8.714-1.678 6.203 1.963 12.595 8.133 14.362 4.46.784 9.043 1.075 13.152 1.075 31.03 0 41.288-17.863 51.532-43.947L141.86 39.76c2.183-6.843-1.62-14.156-8.42-16.333-6.682-2.126-13.76 1.408-16.155 7.9L74.75 143.752h-.666L29.338 30.483c-3.028-6.402-10.517-9.526-17.272-6.995-6.93 2.6-10.49 10.185-8.215 17.157L60.207 178.12z"/></svg>